<mxfile host="app.diagrams.net" modified="2024-05-24T07:51:51.894Z" agent="Mozilla/5.0 (Windows NT 10.0; Win64; x64) AppleWebKit/537.36 (KHTML, like Gecko) Chrome/124.0.0.0 Safari/537.36" etag="Nc_f4X5_ufPsprzVYw-X" version="24.4.4" type="device">
  <diagram name="Page-1" id="4-Kmg55Br3VrKGRfLm14">
    <mxGraphModel dx="2519" dy="1390" grid="1" gridSize="10" guides="1" tooltips="1" connect="1" arrows="1" fold="1" page="1" pageScale="1" pageWidth="850" pageHeight="1100" math="0" shadow="0">
      <root>
        <mxCell id="0" />
        <mxCell id="1" parent="0" />
        <mxCell id="PsbyndBXM5tB9_lcuG-N-1" value="Phòng ban" style="rounded=0;whiteSpace=wrap;html=1;" parent="1" vertex="1">
          <mxGeometry x="280" y="440" width="120" height="60" as="geometry" />
        </mxCell>
        <mxCell id="PsbyndBXM5tB9_lcuG-N-3" value="Nhân viên" style="rounded=0;whiteSpace=wrap;html=1;" parent="1" vertex="1">
          <mxGeometry x="520" y="440" width="120" height="60" as="geometry" />
        </mxCell>
        <mxCell id="PsbyndBXM5tB9_lcuG-N-4" value="Báo cáo" style="rounded=0;whiteSpace=wrap;html=1;" parent="1" vertex="1">
          <mxGeometry x="160" y="700" width="120" height="60" as="geometry" />
        </mxCell>
        <mxCell id="PsbyndBXM5tB9_lcuG-N-5" value="Chấm công" style="rounded=0;whiteSpace=wrap;html=1;" parent="1" vertex="1">
          <mxGeometry x="520" y="700" width="120" height="60" as="geometry" />
        </mxCell>
        <mxCell id="PsbyndBXM5tB9_lcuG-N-6" value="Tên nhân viên" style="ellipse;whiteSpace=wrap;html=1;" parent="1" vertex="1">
          <mxGeometry x="520" y="260" width="120" height="80" as="geometry" />
        </mxCell>
        <mxCell id="PsbyndBXM5tB9_lcuG-N-9" value="&lt;u&gt;Mã nhân viên&lt;/u&gt;" style="ellipse;whiteSpace=wrap;html=1;" parent="1" vertex="1">
          <mxGeometry x="390" y="270" width="120" height="80" as="geometry" />
        </mxCell>
        <mxCell id="PsbyndBXM5tB9_lcuG-N-12" value="Thông tin nhân viên" style="ellipse;whiteSpace=wrap;html=1;" parent="1" vertex="1">
          <mxGeometry x="640" y="260" width="120" height="80" as="geometry" />
        </mxCell>
        <mxCell id="PsbyndBXM5tB9_lcuG-N-16" value="&lt;u&gt;Mã phòng ban&lt;/u&gt;" style="ellipse;whiteSpace=wrap;html=1;" parent="1" vertex="1">
          <mxGeometry x="90" y="270" width="120" height="80" as="geometry" />
        </mxCell>
        <mxCell id="PsbyndBXM5tB9_lcuG-N-20" value="Tên phòng ban" style="ellipse;whiteSpace=wrap;html=1;" parent="1" vertex="1">
          <mxGeometry x="240" y="270" width="120" height="80" as="geometry" />
        </mxCell>
        <mxCell id="PsbyndBXM5tB9_lcuG-N-27" value="" style="endArrow=none;html=1;rounded=0;" parent="1" source="PsbyndBXM5tB9_lcuG-N-1" target="PsbyndBXM5tB9_lcuG-N-16" edge="1">
          <mxGeometry width="50" height="50" relative="1" as="geometry">
            <mxPoint x="30" y="410" as="sourcePoint" />
            <mxPoint x="80" y="360" as="targetPoint" />
          </mxGeometry>
        </mxCell>
        <mxCell id="PsbyndBXM5tB9_lcuG-N-29" value="" style="endArrow=none;html=1;rounded=0;" parent="1" source="PsbyndBXM5tB9_lcuG-N-1" target="PsbyndBXM5tB9_lcuG-N-20" edge="1">
          <mxGeometry width="50" height="50" relative="1" as="geometry">
            <mxPoint x="180" y="400" as="sourcePoint" />
            <mxPoint x="230" y="350" as="targetPoint" />
          </mxGeometry>
        </mxCell>
        <mxCell id="PsbyndBXM5tB9_lcuG-N-30" value="Tổng giờ nghỉ phép" style="ellipse;whiteSpace=wrap;html=1;" parent="1" vertex="1">
          <mxGeometry x="-40" y="770" width="120" height="80" as="geometry" />
        </mxCell>
        <mxCell id="PsbyndBXM5tB9_lcuG-N-31" value="Chức vụ" style="ellipse;whiteSpace=wrap;html=1;" parent="1" vertex="1">
          <mxGeometry x="760" y="280" width="120" height="80" as="geometry" />
        </mxCell>
        <mxCell id="PsbyndBXM5tB9_lcuG-N-34" value="Dữ liệu vân tay, khuôn mặt" style="ellipse;whiteSpace=wrap;html=1;" parent="1" vertex="1">
          <mxGeometry x="810" y="360" width="120" height="80" as="geometry" />
        </mxCell>
        <mxCell id="PsbyndBXM5tB9_lcuG-N-36" value="" style="endArrow=none;html=1;rounded=0;entryX=0.5;entryY=0;entryDx=0;entryDy=0;" parent="1" source="PsbyndBXM5tB9_lcuG-N-9" target="PsbyndBXM5tB9_lcuG-N-3" edge="1">
          <mxGeometry width="50" height="50" relative="1" as="geometry">
            <mxPoint x="450" y="360" as="sourcePoint" />
            <mxPoint x="500" y="310" as="targetPoint" />
          </mxGeometry>
        </mxCell>
        <mxCell id="PsbyndBXM5tB9_lcuG-N-37" value="" style="endArrow=none;html=1;rounded=0;" parent="1" source="PsbyndBXM5tB9_lcuG-N-3" target="PsbyndBXM5tB9_lcuG-N-6" edge="1">
          <mxGeometry width="50" height="50" relative="1" as="geometry">
            <mxPoint x="555" y="345" as="sourcePoint" />
            <mxPoint x="605" y="295" as="targetPoint" />
          </mxGeometry>
        </mxCell>
        <mxCell id="PsbyndBXM5tB9_lcuG-N-38" value="" style="endArrow=none;html=1;rounded=0;exitX=0.5;exitY=0;exitDx=0;exitDy=0;" parent="1" source="PsbyndBXM5tB9_lcuG-N-3" target="PsbyndBXM5tB9_lcuG-N-12" edge="1">
          <mxGeometry width="50" height="50" relative="1" as="geometry">
            <mxPoint x="690" y="400" as="sourcePoint" />
            <mxPoint x="690" y="260" as="targetPoint" />
          </mxGeometry>
        </mxCell>
        <mxCell id="PsbyndBXM5tB9_lcuG-N-39" value="" style="endArrow=none;html=1;rounded=0;" parent="1" source="PsbyndBXM5tB9_lcuG-N-3" target="PsbyndBXM5tB9_lcuG-N-31" edge="1">
          <mxGeometry width="50" height="50" relative="1" as="geometry">
            <mxPoint x="690" y="440" as="sourcePoint" />
            <mxPoint x="802" y="296" as="targetPoint" />
            <Array as="points" />
          </mxGeometry>
        </mxCell>
        <mxCell id="PsbyndBXM5tB9_lcuG-N-41" value="" style="endArrow=none;html=1;rounded=0;exitX=1;exitY=0.5;exitDx=0;exitDy=0;" parent="1" source="PsbyndBXM5tB9_lcuG-N-3" target="PsbyndBXM5tB9_lcuG-N-34" edge="1">
          <mxGeometry width="50" height="50" relative="1" as="geometry">
            <mxPoint x="672.15" y="515.11" as="sourcePoint" />
            <mxPoint x="910.15" y="425.11" as="targetPoint" />
          </mxGeometry>
        </mxCell>
        <mxCell id="PsbyndBXM5tB9_lcuG-N-43" value="" style="endArrow=none;html=1;rounded=0;" parent="1" source="PsbyndBXM5tB9_lcuG-N-1" target="PsbyndBXM5tB9_lcuG-N-3" edge="1">
          <mxGeometry width="50" height="50" relative="1" as="geometry">
            <mxPoint x="260" y="480" as="sourcePoint" />
            <mxPoint x="310" y="430" as="targetPoint" />
          </mxGeometry>
        </mxCell>
        <mxCell id="PsbyndBXM5tB9_lcuG-N-46" value="Lương" style="whiteSpace=wrap;html=1;" parent="1" vertex="1">
          <mxGeometry x="90" y="440" width="120" height="60" as="geometry" />
        </mxCell>
        <mxCell id="PsbyndBXM5tB9_lcuG-N-49" value="Làm việc" style="rhombus;whiteSpace=wrap;html=1;" parent="1" vertex="1">
          <mxGeometry x="540" y="550" width="80" height="80" as="geometry" />
        </mxCell>
        <mxCell id="PsbyndBXM5tB9_lcuG-N-53" value="" style="endArrow=none;html=1;rounded=0;" parent="1" source="PsbyndBXM5tB9_lcuG-N-49" target="PsbyndBXM5tB9_lcuG-N-3" edge="1">
          <mxGeometry width="50" height="50" relative="1" as="geometry">
            <mxPoint x="580" y="600" as="sourcePoint" />
            <mxPoint x="580" y="480" as="targetPoint" />
          </mxGeometry>
        </mxCell>
        <mxCell id="PsbyndBXM5tB9_lcuG-N-55" value="Mã chấm công" style="ellipse;whiteSpace=wrap;html=1;" parent="1" vertex="1">
          <mxGeometry x="750" y="660" width="120" height="80" as="geometry" />
        </mxCell>
        <mxCell id="PsbyndBXM5tB9_lcuG-N-57" value="Thời gian vào" style="ellipse;whiteSpace=wrap;html=1;" parent="1" vertex="1">
          <mxGeometry x="780" y="740" width="120" height="80" as="geometry" />
        </mxCell>
        <mxCell id="PsbyndBXM5tB9_lcuG-N-60" value="Thời gian ra" style="ellipse;whiteSpace=wrap;html=1;" parent="1" vertex="1">
          <mxGeometry x="750" y="820" width="120" height="80" as="geometry" />
        </mxCell>
        <mxCell id="PsbyndBXM5tB9_lcuG-N-62" value="Loại chấm công" style="ellipse;whiteSpace=wrap;html=1;" parent="1" vertex="1">
          <mxGeometry x="640" y="870" width="120" height="80" as="geometry" />
        </mxCell>
        <mxCell id="PsbyndBXM5tB9_lcuG-N-63" value="Ngày" style="ellipse;whiteSpace=wrap;html=1;" parent="1" vertex="1">
          <mxGeometry x="730" y="560" width="120" height="80" as="geometry" />
        </mxCell>
        <mxCell id="PsbyndBXM5tB9_lcuG-N-64" value="" style="endArrow=none;html=1;rounded=0;" parent="1" source="PsbyndBXM5tB9_lcuG-N-5" target="PsbyndBXM5tB9_lcuG-N-63" edge="1">
          <mxGeometry width="50" height="50" relative="1" as="geometry">
            <mxPoint x="642" y="670.01" as="sourcePoint" />
            <mxPoint x="830" y="600" as="targetPoint" />
          </mxGeometry>
        </mxCell>
        <mxCell id="PsbyndBXM5tB9_lcuG-N-65" value="" style="endArrow=none;html=1;rounded=0;" parent="1" source="PsbyndBXM5tB9_lcuG-N-5" target="PsbyndBXM5tB9_lcuG-N-55" edge="1">
          <mxGeometry width="50" height="50" relative="1" as="geometry">
            <mxPoint x="635.99" y="750.01" as="sourcePoint" />
            <mxPoint x="843.99" y="670.01" as="targetPoint" />
          </mxGeometry>
        </mxCell>
        <mxCell id="PsbyndBXM5tB9_lcuG-N-66" value="" style="endArrow=none;html=1;rounded=0;" parent="1" source="PsbyndBXM5tB9_lcuG-N-5" target="PsbyndBXM5tB9_lcuG-N-57" edge="1">
          <mxGeometry width="50" height="50" relative="1" as="geometry">
            <mxPoint x="642" y="830" as="sourcePoint" />
            <mxPoint x="850" y="750" as="targetPoint" />
          </mxGeometry>
        </mxCell>
        <mxCell id="PsbyndBXM5tB9_lcuG-N-67" value="" style="endArrow=none;html=1;rounded=0;" parent="1" source="PsbyndBXM5tB9_lcuG-N-5" target="PsbyndBXM5tB9_lcuG-N-60" edge="1">
          <mxGeometry width="50" height="50" relative="1" as="geometry">
            <mxPoint x="616" y="910" as="sourcePoint" />
            <mxPoint x="824" y="830" as="targetPoint" />
          </mxGeometry>
        </mxCell>
        <mxCell id="PsbyndBXM5tB9_lcuG-N-68" value="" style="endArrow=none;html=1;rounded=0;" parent="1" source="PsbyndBXM5tB9_lcuG-N-5" target="PsbyndBXM5tB9_lcuG-N-62" edge="1">
          <mxGeometry width="50" height="50" relative="1" as="geometry">
            <mxPoint x="610" y="770" as="sourcePoint" />
            <mxPoint x="765.31" y="895" as="targetPoint" />
          </mxGeometry>
        </mxCell>
        <mxCell id="PsbyndBXM5tB9_lcuG-N-70" value="" style="triangle;whiteSpace=wrap;html=1;direction=north;" parent="1" vertex="1">
          <mxGeometry x="565" y="670" width="30" height="30" as="geometry" />
        </mxCell>
        <mxCell id="PsbyndBXM5tB9_lcuG-N-72" value="" style="endArrow=none;html=1;rounded=0;" parent="1" source="PsbyndBXM5tB9_lcuG-N-5" target="PsbyndBXM5tB9_lcuG-N-49" edge="1">
          <mxGeometry width="50" height="50" relative="1" as="geometry">
            <mxPoint x="579.5" y="700" as="sourcePoint" />
            <mxPoint x="579.5" y="650" as="targetPoint" />
          </mxGeometry>
        </mxCell>
        <mxCell id="PsbyndBXM5tB9_lcuG-N-74" value="" style="endArrow=none;html=1;rounded=0;" parent="1" edge="1">
          <mxGeometry width="50" height="50" relative="1" as="geometry">
            <mxPoint x="565" y="670" as="sourcePoint" />
            <mxPoint x="595" y="670" as="targetPoint" />
          </mxGeometry>
        </mxCell>
        <mxCell id="PsbyndBXM5tB9_lcuG-N-75" value="Có" style="rhombus;whiteSpace=wrap;html=1;" parent="1" vertex="1">
          <mxGeometry x="345" y="690" width="85" height="80" as="geometry" />
        </mxCell>
        <mxCell id="PsbyndBXM5tB9_lcuG-N-77" value="Mã báo cáo" style="ellipse;whiteSpace=wrap;html=1;" parent="1" vertex="1">
          <mxGeometry x="280" y="830" width="120" height="80" as="geometry" />
        </mxCell>
        <mxCell id="PsbyndBXM5tB9_lcuG-N-78" value="Tổng giờ làm việc" style="ellipse;whiteSpace=wrap;html=1;" parent="1" vertex="1">
          <mxGeometry x="40" y="840" width="120" height="80" as="geometry" />
        </mxCell>
        <mxCell id="PsbyndBXM5tB9_lcuG-N-79" value="Thời gian báo cáo" style="ellipse;whiteSpace=wrap;html=1;" parent="1" vertex="1">
          <mxGeometry x="160" y="870" width="120" height="80" as="geometry" />
        </mxCell>
        <mxCell id="PsbyndBXM5tB9_lcuG-N-80" value="Tổng giờ làm thêm" style="ellipse;whiteSpace=wrap;html=1;" parent="1" vertex="1">
          <mxGeometry x="-40" y="680" width="120" height="80" as="geometry" />
        </mxCell>
        <mxCell id="PsbyndBXM5tB9_lcuG-N-81" value="" style="endArrow=none;html=1;rounded=0;" parent="1" source="PsbyndBXM5tB9_lcuG-N-77" target="PsbyndBXM5tB9_lcuG-N-4" edge="1">
          <mxGeometry width="50" height="50" relative="1" as="geometry">
            <mxPoint x="366.76" y="878.64" as="sourcePoint" />
            <mxPoint x="249.76" y="779.64" as="targetPoint" />
          </mxGeometry>
        </mxCell>
        <mxCell id="PsbyndBXM5tB9_lcuG-N-82" value="" style="endArrow=none;html=1;rounded=0;" parent="1" source="PsbyndBXM5tB9_lcuG-N-79" target="PsbyndBXM5tB9_lcuG-N-4" edge="1">
          <mxGeometry width="50" height="50" relative="1" as="geometry">
            <mxPoint x="279.64" y="873" as="sourcePoint" />
            <mxPoint x="214.64" y="760" as="targetPoint" />
          </mxGeometry>
        </mxCell>
        <mxCell id="PsbyndBXM5tB9_lcuG-N-83" value="" style="endArrow=none;html=1;rounded=0;" parent="1" source="PsbyndBXM5tB9_lcuG-N-78" target="PsbyndBXM5tB9_lcuG-N-4" edge="1">
          <mxGeometry width="50" height="50" relative="1" as="geometry">
            <mxPoint x="170.29" y="860" as="sourcePoint" />
            <mxPoint x="194.29" y="750" as="targetPoint" />
          </mxGeometry>
        </mxCell>
        <mxCell id="PsbyndBXM5tB9_lcuG-N-84" value="" style="endArrow=none;html=1;rounded=0;" parent="1" source="PsbyndBXM5tB9_lcuG-N-30" target="PsbyndBXM5tB9_lcuG-N-4" edge="1">
          <mxGeometry width="50" height="50" relative="1" as="geometry">
            <mxPoint x="99.92" y="828" as="sourcePoint" />
            <mxPoint x="199.92000000000002" y="740" as="targetPoint" />
          </mxGeometry>
        </mxCell>
        <mxCell id="PsbyndBXM5tB9_lcuG-N-87" value="" style="endArrow=none;html=1;rounded=0;" parent="1" source="PsbyndBXM5tB9_lcuG-N-80" target="PsbyndBXM5tB9_lcuG-N-4" edge="1">
          <mxGeometry width="50" height="50" relative="1" as="geometry">
            <mxPoint x="40.14" y="770.2" as="sourcePoint" />
            <mxPoint x="195.14" y="724.2" as="targetPoint" />
          </mxGeometry>
        </mxCell>
        <mxCell id="PsbyndBXM5tB9_lcuG-N-89" value="" style="endArrow=none;html=1;rounded=0;" parent="1" edge="1">
          <mxGeometry width="50" height="50" relative="1" as="geometry">
            <mxPoint x="510" y="740" as="sourcePoint" />
            <mxPoint x="510" y="720" as="targetPoint" />
          </mxGeometry>
        </mxCell>
        <mxCell id="PsbyndBXM5tB9_lcuG-N-91" value="" style="endArrow=none;html=1;rounded=0;" parent="1" source="PsbyndBXM5tB9_lcuG-N-75" target="PsbyndBXM5tB9_lcuG-N-5" edge="1">
          <mxGeometry width="50" height="50" relative="1" as="geometry">
            <mxPoint x="410" y="730" as="sourcePoint" />
            <mxPoint x="530" y="730" as="targetPoint" />
          </mxGeometry>
        </mxCell>
        <mxCell id="PsbyndBXM5tB9_lcuG-N-92" value="Nhận" style="rhombus;whiteSpace=wrap;html=1;" parent="1" vertex="1">
          <mxGeometry x="177.5" y="550" width="85" height="80" as="geometry" />
        </mxCell>
        <mxCell id="PsbyndBXM5tB9_lcuG-N-93" value="" style="endArrow=none;html=1;rounded=0;" parent="1" source="PsbyndBXM5tB9_lcuG-N-4" target="PsbyndBXM5tB9_lcuG-N-92" edge="1">
          <mxGeometry width="50" height="50" relative="1" as="geometry">
            <mxPoint x="220" y="710" as="sourcePoint" />
            <mxPoint x="220" y="620" as="targetPoint" />
            <Array as="points" />
          </mxGeometry>
        </mxCell>
        <mxCell id="PsbyndBXM5tB9_lcuG-N-117" value="" style="endArrow=none;html=1;rounded=0;" parent="1" edge="1">
          <mxGeometry width="50" height="50" relative="1" as="geometry">
            <mxPoint x="210" y="684.5" as="sourcePoint" />
            <mxPoint x="230" y="684.5" as="targetPoint" />
          </mxGeometry>
        </mxCell>
        <mxCell id="PsbyndBXM5tB9_lcuG-N-118" value="Mã lương" style="ellipse;whiteSpace=wrap;html=1;" parent="1" vertex="1">
          <mxGeometry x="-50" y="260" width="120" height="80" as="geometry" />
        </mxCell>
        <mxCell id="PsbyndBXM5tB9_lcuG-N-119" value="Thời gian lương" style="ellipse;whiteSpace=wrap;html=1;" parent="1" vertex="1">
          <mxGeometry x="-170" y="290" width="120" height="80" as="geometry" />
        </mxCell>
        <mxCell id="PsbyndBXM5tB9_lcuG-N-120" value="Lương cơ bản" style="ellipse;whiteSpace=wrap;html=1;" parent="1" vertex="1">
          <mxGeometry x="-200" y="380" width="120" height="80" as="geometry" />
        </mxCell>
        <mxCell id="PsbyndBXM5tB9_lcuG-N-121" value="Tiền thưởng" style="ellipse;whiteSpace=wrap;html=1;" parent="1" vertex="1">
          <mxGeometry x="-190" y="470" width="120" height="80" as="geometry" />
        </mxCell>
        <mxCell id="PsbyndBXM5tB9_lcuG-N-122" value="Tiền làm thêm" style="ellipse;whiteSpace=wrap;html=1;" parent="1" vertex="1">
          <mxGeometry x="-120" y="540" width="120" height="80" as="geometry" />
        </mxCell>
        <mxCell id="PsbyndBXM5tB9_lcuG-N-123" value="Lương tổng" style="ellipse;whiteSpace=wrap;html=1;" parent="1" vertex="1">
          <mxGeometry x="10" y="560" width="120" height="80" as="geometry" />
        </mxCell>
        <mxCell id="PsbyndBXM5tB9_lcuG-N-124" value="" style="endArrow=none;html=1;rounded=0;exitX=0.25;exitY=0;exitDx=0;exitDy=0;" parent="1" source="PsbyndBXM5tB9_lcuG-N-46" target="PsbyndBXM5tB9_lcuG-N-118" edge="1">
          <mxGeometry width="50" height="50" relative="1" as="geometry">
            <mxPoint x="116.75999999999999" y="418.64" as="sourcePoint" />
            <mxPoint x="-0.2400000000000091" y="319.64" as="targetPoint" />
          </mxGeometry>
        </mxCell>
        <mxCell id="PsbyndBXM5tB9_lcuG-N-125" value="" style="endArrow=none;html=1;rounded=0;" parent="1" source="PsbyndBXM5tB9_lcuG-N-46" target="PsbyndBXM5tB9_lcuG-N-119" edge="1">
          <mxGeometry width="50" height="50" relative="1" as="geometry">
            <mxPoint x="22.159999999999997" y="440" as="sourcePoint" />
            <mxPoint x="-59.84" y="335" as="targetPoint" />
          </mxGeometry>
        </mxCell>
        <mxCell id="PsbyndBXM5tB9_lcuG-N-126" value="" style="endArrow=none;html=1;rounded=0;" parent="1" source="PsbyndBXM5tB9_lcuG-N-46" target="PsbyndBXM5tB9_lcuG-N-120" edge="1">
          <mxGeometry width="50" height="50" relative="1" as="geometry">
            <mxPoint x="29.709999999999994" y="484.87" as="sourcePoint" />
            <mxPoint x="-127.29" y="399.87" as="targetPoint" />
          </mxGeometry>
        </mxCell>
        <mxCell id="PsbyndBXM5tB9_lcuG-N-127" value="" style="endArrow=none;html=1;rounded=0;" parent="1" source="PsbyndBXM5tB9_lcuG-N-46" target="PsbyndBXM5tB9_lcuG-N-121" edge="1">
          <mxGeometry width="50" height="50" relative="1" as="geometry">
            <mxPoint x="62" y="490" as="sourcePoint" />
            <mxPoint x="-110.09" y="459.98" as="targetPoint" />
          </mxGeometry>
        </mxCell>
        <mxCell id="PsbyndBXM5tB9_lcuG-N-128" value="" style="endArrow=none;html=1;rounded=0;entryX=0.627;entryY=0.002;entryDx=0;entryDy=0;entryPerimeter=0;" parent="1" source="PsbyndBXM5tB9_lcuG-N-46" target="PsbyndBXM5tB9_lcuG-N-122" edge="1">
          <mxGeometry width="50" height="50" relative="1" as="geometry">
            <mxPoint x="111.33" y="498.9" as="sourcePoint" />
            <mxPoint x="-49.67" y="521.9" as="targetPoint" />
          </mxGeometry>
        </mxCell>
        <mxCell id="PsbyndBXM5tB9_lcuG-N-129" value="" style="endArrow=none;html=1;rounded=0;" parent="1" source="PsbyndBXM5tB9_lcuG-N-46" target="PsbyndBXM5tB9_lcuG-N-123" edge="1">
          <mxGeometry width="50" height="50" relative="1" as="geometry">
            <mxPoint x="144.76" y="511.84" as="sourcePoint" />
            <mxPoint x="9.759999999999998" y="559.84" as="targetPoint" />
          </mxGeometry>
        </mxCell>
        <mxCell id="PsbyndBXM5tB9_lcuG-N-130" value="" style="endArrow=none;html=1;rounded=0;" parent="1" source="PsbyndBXM5tB9_lcuG-N-46" target="PsbyndBXM5tB9_lcuG-N-92" edge="1">
          <mxGeometry width="50" height="50" relative="1" as="geometry">
            <mxPoint x="150.46" y="500" as="sourcePoint" />
            <mxPoint x="220" y="560" as="targetPoint" />
          </mxGeometry>
        </mxCell>
        <mxCell id="PsbyndBXM5tB9_lcuG-N-131" value="" style="endArrow=none;html=1;rounded=0;" parent="1" source="PsbyndBXM5tB9_lcuG-N-4" target="PsbyndBXM5tB9_lcuG-N-75" edge="1">
          <mxGeometry width="50" height="50" relative="1" as="geometry">
            <mxPoint x="320.5" y="567.91" as="sourcePoint" />
            <mxPoint x="357.5" y="631.91" as="targetPoint" />
          </mxGeometry>
        </mxCell>
        <mxCell id="PsbyndBXM5tB9_lcuG-N-132" value="" style="endArrow=none;html=1;rounded=0;" parent="1" edge="1">
          <mxGeometry width="50" height="50" relative="1" as="geometry">
            <mxPoint x="400" y="480" as="sourcePoint" />
            <mxPoint x="400" y="460" as="targetPoint" />
            <Array as="points">
              <mxPoint x="420" y="470" />
            </Array>
          </mxGeometry>
        </mxCell>
        <mxCell id="PsbyndBXM5tB9_lcuG-N-134" value="" style="endArrow=none;html=1;rounded=0;" parent="1" edge="1">
          <mxGeometry width="50" height="50" relative="1" as="geometry">
            <mxPoint x="420" y="460" as="sourcePoint" />
            <mxPoint x="420" y="480" as="targetPoint" />
          </mxGeometry>
        </mxCell>
        <mxCell id="PsbyndBXM5tB9_lcuG-N-135" value="" style="endArrow=none;html=1;rounded=0;exitX=0.5;exitY=1;exitDx=0;exitDy=0;" parent="1" source="PsbyndBXM5tB9_lcuG-N-46" edge="1">
          <mxGeometry width="50" height="50" relative="1" as="geometry">
            <mxPoint x="160" y="510" as="sourcePoint" />
            <mxPoint x="180" y="500" as="targetPoint" />
            <Array as="points">
              <mxPoint x="180" y="520" />
            </Array>
          </mxGeometry>
        </mxCell>
        <mxCell id="PsbyndBXM5tB9_lcuG-N-136" value="" style="endArrow=none;html=1;rounded=0;" parent="1" edge="1">
          <mxGeometry width="50" height="50" relative="1" as="geometry">
            <mxPoint x="170" y="530" as="sourcePoint" />
            <mxPoint x="190" y="510" as="targetPoint" />
          </mxGeometry>
        </mxCell>
        <mxCell id="PsbyndBXM5tB9_lcuG-N-138" value="" style="endArrow=none;html=1;rounded=0;" parent="1" edge="1">
          <mxGeometry width="50" height="50" relative="1" as="geometry">
            <mxPoint x="210" y="690" as="sourcePoint" />
            <mxPoint x="230" y="690" as="targetPoint" />
          </mxGeometry>
        </mxCell>
        <mxCell id="PsbyndBXM5tB9_lcuG-N-139" value="" style="endArrow=none;html=1;rounded=0;" parent="1" edge="1">
          <mxGeometry width="50" height="50" relative="1" as="geometry">
            <mxPoint x="500" y="740" as="sourcePoint" />
            <mxPoint x="500" y="720" as="targetPoint" />
          </mxGeometry>
        </mxCell>
        <mxCell id="PsbyndBXM5tB9_lcuG-N-140" value="" style="endArrow=none;html=1;rounded=0;" parent="1" edge="1">
          <mxGeometry width="50" height="50" relative="1" as="geometry">
            <mxPoint x="280" y="740" as="sourcePoint" />
            <mxPoint x="280" y="720" as="targetPoint" />
            <Array as="points">
              <mxPoint x="300" y="730" />
            </Array>
          </mxGeometry>
        </mxCell>
        <mxCell id="PsbyndBXM5tB9_lcuG-N-141" value="" style="endArrow=none;html=1;rounded=0;" parent="1" edge="1">
          <mxGeometry width="50" height="50" relative="1" as="geometry">
            <mxPoint x="299.5" y="720" as="sourcePoint" />
            <mxPoint x="299.5" y="740" as="targetPoint" />
          </mxGeometry>
        </mxCell>
      </root>
    </mxGraphModel>
  </diagram>
</mxfile>
